<svg xmlns="http://www.w3.org/2000/svg" width="1065" height="280"><g fill="#000" fill-rule="evenodd"><g transform="translate(10 10)"><path d="M130 0c71.797017 0 130 58.2029825 130 130 0 71.797017-58.202983 130-130 130C58.2029825 260 0 201.797017 0 130 0 58.2029825 58.2029825 0 130 0Zm0 10.0296736C63.7422183 10.0296736 10.0296736 63.7422183 10.0296736 130c0 66.257782 53.7125447 119.970326 119.9703264 119.970326 66.257782 0 119.970326-53.712544 119.970326-119.970326 0-66.2577817-53.712544-119.9703264-119.970326-119.9703264Z"/><path d="M69.2729718 86C84.5229701 86 104.418646 94.4480672 128.96 111.344202 104.418646 129.781401 84.5229701 139 69.2729718 139 54.0229735 139 35.9319829 129.781401 15 111.344202 35.9319829 94.4480672 54.0229735 86 69.2729718 86Zm117.0400002 0C201.56297 86 221.458646 94.4480672 246 111.344202 221.458646 129.781401 201.56297 139 186.312972 139c-15.249999 0-33.340989-9.218599-54.272972-27.655798C152.971983 94.4480672 171.062973 86 186.312972 86ZM158.5 223.5c0 2.761424-2.238576 5-5 5h-45c-2.761424 0-5-2.238576-5-5s2.238576-5 5-5h45c2.761424 0 5 2.238576 5 5ZM158.5 167.5c0 2.761424-2.238576 5-5 5h-45c-2.761424 0-5-2.238576-5-5s2.238576-5 5-5h45c2.761424 0 5 2.238576 5 5Z"/><rect width="10" height="55" x="126" y="140" rx="5"/></g><path fill-rule="nonzero" d="M674.2807789 83.3716578V72.6898396l-2.1582521-21.8977273 22.407735 32.5795455h14.7268966l22.344257-32.5481284-2.1582521 21.8663102v10.6818182h22.3442569V37.62834225H722.460583L701.8937101 69.453877l-20.6303509-31.82553475H652V83.3716578h22.2807789Zm114.2029821 0V37.62834225H766.26646V83.3716578h22.217301Zm36.569384 0V54.907754l32.754649 28.4639038h22.153823V37.62834225h-22.217301V66.092246l-32.691171-28.46390375h-22.280779V83.3716578h22.280779ZM929.036168 84c7.448086 0 13.901683-.649287 19.360791-1.947861 5.459108-1.2985739 9.648656-3.1888369 12.568645-5.6707887 2.919988-2.4819519 4.379982-5.4194519 4.379982-8.8125V37.62834225h-22.280779V67.506016c0 2.8275401-1.184923 4.8696524-3.554768 6.1263369-2.369846 1.2566845-5.861136 1.8850268-10.473871 1.8850268-9.140832 0-13.838204-2.5028966-14.092116-7.5086899V37.62834225h-22.407735V67.7887701c.126956 5.0267379 3.427812 8.9852941 9.902568 11.8756684C908.913641 82.5548128 917.779402 84 929.036168 84Zm84.749189 0c10.621985 0 18.979922-1.1414884 25.073811-3.4244652C1044.953056 78.2925579 1048 75.1508467 1048 71.1504011c0-5.0057933-4.993603-8.9329323-14.980809-11.7814171-4.10491-1.1729056-9.352425-2.2672683-15.742544-3.2830883-6.390119-1.0158199-10.854739-2.0002228-13.393859-2.9532085-2.53912-.9529858-3.80868-2.0159314-3.80868-3.1888369 0-1.3404635 1.153184-2.4452986 3.459551-3.31450538 2.306368-.86920677 5.448529-1.30381016 9.426484-1.30381016 3.935636 0 7.056637.51314617 9.363005 1.5394385 2.306367 1.02629234 3.459551 2.47147954 3.459551 4.33556154H1048c0-2.7856507-1.459994-5.26236635-4.379982-7.4301471-2.919988-2.16778075-7.014319-3.83812389-12.282994-5.01102941C1026.06835 37.58645276 1020.111997 37 1013.467967 37c-6.813306 0-12.949513.5393271-18.408621 1.61798128-5.459108 1.07865419-9.680396 2.58667558-12.663862 4.52406417-2.983466 1.9373886-4.475199 4.17323975-4.475199 6.70755345 0 5.0895722 5.988092 9.0900179 17.964275 12.0013369 3.681724.9006239 8.421415 1.8326649 14.219072 2.796123 5.797658.9634581 9.84967 1.8954991 12.156038 2.796123 2.306367.9006239 3.459551 2.1573084 3.459551 3.7700535 0 1.4242424-1.068546 2.5290775-3.205639 3.3145053-2.137093.7854278-5.046501 1.1781418-8.728225 1.1781418-5.755339 0-9.913149-.5812166-12.473428-1.7436498-2.560279-1.1624331-3.840419-2.9689171-3.840419-5.4194519h-22.344257c0 3.0160428 1.534052 5.6812612 4.602155 7.9956551 3.068104 2.314394 7.63852 4.1365865 13.711249 5.4665776C999.513386 83.3350045 1006.294952 84 1013.785357 84Z"/><path d="M608.061133 247.308594c10.621745 0 18.979492-5.100268 25.073242-15.300802 6.09375-10.200535 9.140625-24.237968 9.140625-42.1123 0-22.36631-4.99349-39.913101-14.980469-52.640374-4.104817-5.240642-9.352213-10.130348-15.742187-14.669118-6.389974-4.53877-10.854492-8.937166-13.393555-13.195187-2.539062-4.258021-3.808594-9.007353-3.808594-14.2479947 0-5.9893048 1.153158-10.9258021 3.459473-14.8094919 2.306315-3.8836899 5.448405-5.8255348 9.42627-5.8255348 3.935546 0 7.056477 2.2927808 9.362792 6.8783423 2.306316 4.5855615 3.459473 11.0427807 3.459473 19.3716581H642.275c0-12.4465245-1.459961-23.5127009-4.379883-33.1985298-2.919922-9.6858289-7.01416-17.1490642-12.282715-22.3897059-5.268554-5.2406417-11.224772-7.8609625-17.868652-7.8609625-6.813151 0-12.949219 2.4097593-18.408203 7.229278-5.458984 4.8195187-9.680176 11.5574867-12.663574 20.2139038-2.983399 8.6564171-4.475098 18.6463903-4.475098 29.9699198 0 22.7406416 5.987956 40.6149736 17.963867 53.6229946 3.681641 4.024064 8.421224 8.188503 14.21875 12.493316 5.797526 4.304812 9.849447 8.469251 12.155762 12.493315 2.306315 4.024064 3.459473 9.639037 3.459473 16.84492 0 6.363636-1.068523 11.300133-3.205567 14.809492-2.137044 3.509358-5.046387 5.264037-8.728027 5.264037-5.755209 0-9.912923-2.596925-12.473145-7.790775-2.560221-5.19385-3.840332-13.265375-3.840332-24.214572h-22.34375c0 13.475935 1.534017 25.384358 4.602051 35.725267 3.068034 10.340909 7.638346 18.48262 13.710938 24.425134 6.072591 5.942513 12.854003 8.91377 20.344238 8.91377Z"/><path fill-rule="nonzero" d="M480.478711 247v-38.942308h-38.78418V37h-22.280273v210zM523.331445 247c7.447917 0 13.901367-2.940379 19.360352-8.821138 5.458984-5.880759 9.648437-14.441057 12.568359-25.680895 2.919922-11.239837 4.379883-24.542682 4.379883-39.908536V37h-22.280273v135.304878c0 12.804878-1.184896 22.052846-3.554688 27.743902-2.369792 5.691057-5.861002 8.536586-10.473633 8.536586-9.140625 0-13.83789-11.334688-14.091797-34.004065V37h-22.407226v136.585366c.126953 22.764227 3.427734 40.691057 9.902344 53.780488C503.209375 240.455285 512.074935 247 523.331445 247ZM374.009599 37l.461357.004192c6.902972.1257588 13.023619 3.0810923 18.361941 8.8660003 5.456952 5.9134615 9.682374 14.3269231 12.676265 25.2403846C408.503054 82.0240385 410 94.4038462 410 108.25c0 20.480769-3.238074 36.850962-9.714223 49.110577C393.809628 169.620192 384.923502 175.75 373.6274 175.75h-14.268761V247H337V37h37.009599Zm.44826 24H359v91h15.193622c4.492027 0 7.916097-3.683333 10.272209-11.05C386.821944 133.583333 388 123.183333 388 109.75c0-14.7333333-1.211086-26.5055556-3.633257-35.3166667C381.944571 65.6222222 378.64161 61.1444444 374.457859 61ZM699.995908 247c9.587562 0 18.11443-2.223113 25.580606-6.669339 7.466176-4.446225 13.265548-10.716099 17.398118-18.809619 4.132569-8.09352 6.391707-17.420174 6.777414-27.97996H720.90671c-.220403 8.614563-2.093835 14.901804-5.620294 18.861724-3.52646 3.959919-8.623295 5.939879-15.290508 5.939879-7.879432 0-13.430851-3.473614-16.654255-10.420841-3.223404-6.947228-4.835106-18.514362-4.835106-34.701403v-10.733467c.165302-14.93654 1.928532-25.808951 5.289689-32.617235 3.361156-6.808283 8.650845-10.212424 15.869067-10.212424 7.108019 0 12.397708 2.014696 15.869067 6.044088 3.471358 4.029392 5.317239 10.663994 5.537643 19.903807H750c-1.21222-17.020708-6.253955-30.376753-15.125205-40.068136C726.003546 95.8456914 714.267049 91 699.665303 91c-10.138571 0-19.064921 3.0394122-26.779051 9.118236-7.71413 6.078825-13.623704 14.693387-17.728723 25.843688C651.05251 137.112224 649 150.120908 649 164.987976v7.503006c0 23.690047 4.545827 42.030728 13.63748 55.022044C671.729133 240.504342 684.181942 247 699.995908 247ZM840 246v-28.186813h-50.175676V94H761v152h79Zm55.624237 1c9.718105 0 18.138623-2.142276 25.261552-6.426829 7.122929-4.284553 12.589364-10.521342 16.399303-18.710366C941.095031 213.67378 943 203.981707 943 192.786585V94h-29.071491v98.579268c0 9.329269-1.546062 16.067073-4.638186 20.213415-3.092125 4.146341-7.647487 6.219512-13.666086 6.219512-11.926765 0-18.055798-8.25813-18.387097-24.77439V94H848v99.512195c.16565 16.585366 4.472537 29.646342 12.920663 39.182927C869.368788 242.231707 880.936646 247 895.624237 247Zm112.101823-1c14.62057-.139194 25.6547-3.949634 33.1024-11.431319C1048.27615 227.086996 1052 215.899267 1052 201.005495c0-8.212455-1.67642-15.172162-5.02926-20.879121-3.35283-5.70696-8.16223-9.604396-14.42819-11.692308 5.55142-2.644689 9.75621-6.750916 12.61436-12.318681 2.85816-5.567766 4.28724-12.283883 4.28724-20.148352 0-13.641026-4.02615-24.045788-12.07846-31.214286C1029.31339 97.5842491 1017.56472 94 1002.11968 94H959v152h48.72606Zm-5.47606-89H987v-34h14.33333c6.55556 0 11.30556 1.366071 14.25 4.098214 2.94445 2.732143 4.41667 7.201389 4.41667 13.407738 0 5.396826-1.36111 9.478175-4.08333 12.244048-2.72223 2.765873-7.27778 4.18254-13.66667 4.25Zm3.60246 58H987v-35h20.16393c9.89071.066858 14.83607 6.184336 14.83607 18.352436 0 5.281757-1.39344 9.37679-4.18033 12.2851-2.78688 2.908309-6.77595 4.362464-11.96721 4.362464Z"/></g></svg>
