<svg xmlns="http://www.w3.org/2000/svg" width="1065" height="280"><g fill="#000" fill-rule="evenodd"><g transform="translate(10 10)"><path d="M130 0c71.797017 0 130 58.2029825 130 130 0 71.797017-58.202983 130-130 130C58.2029825 260 0 201.797017 0 130 0 58.2029825 58.2029825 0 130 0Zm0 10.0296736C63.7422183 10.0296736 10.0296736 63.7422183 10.0296736 130c0 66.257782 53.7125447 119.970326 119.9703264 119.970326 66.257782 0 119.970326-53.712544 119.970326-119.970326 0-66.2577817-53.712544-119.9703264-119.970326-119.9703264Z"/><path d="M69.2729718 86C84.5229701 86 104.418646 94.4480672 128.96 111.344202 104.418646 129.781401 84.5229701 139 69.2729718 139 54.0229735 139 35.9319829 129.781401 15 111.344202 35.9319829 94.4480672 54.0229735 86 69.2729718 86Zm117.0400002 0C201.56297 86 221.458646 94.4480672 246 111.344202 221.458646 129.781401 201.56297 139 186.312972 139c-15.249999 0-33.340989-9.218599-54.272972-27.655798C152.971983 94.4480672 171.062973 86 186.312972 86ZM158.5 223.5c0 2.761424-2.238576 5-5 5h-45c-2.761424 0-5-2.238576-5-5s2.238576-5 5-5h45c2.761424 0 5 2.238576 5 5ZM158.5 167.5c0 2.761424-2.238576 5-5 5h-45c-2.761424 0-5-2.238576-5-5s2.238576-5 5-5h45c2.761424 0 5 2.238576 5 5Z"/><rect width="10" height="55" x="126" y="140" rx="5"/></g><g fill-rule="nonzero"><path d="M358.2626953 131V99.6425781h14.21875c11.2565104 0 20.1114909-2.6977539 26.5649414-8.0932617 6.4534505-5.3955078 9.6801758-12.6000976 9.6801758-21.6137695 0-6.09375-1.4916992-11.542155-4.4750977-16.3452149-2.9833984-4.8030599-7.1940104-8.5058593-12.6318359-11.1083984-5.4378255-2.6025391-11.6902669-3.9038086-18.7573242-3.9038086h-36.87988282V131h22.28027342Zm14.5996094-48.5595703h-14.5996094V55.7802734h14.8535156c4.0201823.0423177 7.1940105 1.3541667 9.5214844 3.9355469 2.327474 2.5813802 3.4912109 6.0302735 3.4912109 10.3466797 0 3.9355469-1.1319986 6.9824219-3.395996 9.140625-2.2639974 2.1582031-5.5541993 3.2373047-9.8706055 3.2373047ZM480.461133 131v-17.138672h-38.78418V38.578125h-22.2802733V131h61.0644533Zm42.852734 1.269531c7.447917 0 13.901367-1.311849 19.360352-3.935547 5.458984-2.623698 9.648437-6.442871 12.568359-11.457519 2.919922-5.014649 4.379883-10.9497072 4.379883-17.8051759V38.578125h-22.280274v60.3662109c0 5.7128907-1.184895 9.8388672-3.554687 12.3779301-2.369792 2.539062-5.861003 3.808593-10.473633 3.808593-9.140625 0-13.83789-5.056966-14.091797-15.1708981V38.578125h-22.407226v60.9375c.126953 10.15625 3.427734 18.154297 9.902343 23.994141 6.47461 5.839843 15.34017 8.759765 26.59668 8.759765Zm84.747266 0c10.621745 0 18.979492-2.306315 25.073242-6.918945 6.09375-4.61263 9.140625-10.960287 9.140625-19.0429688 0-10.1139323-4.99349-18.0485026-14.980469-23.803711-4.104817-2.3697916-9.352213-4.5808919-15.742187-6.6333007-6.389974-2.0524089-10.854492-4.0413412-13.393555-5.9667969-2.539062-1.9254557-3.808594-4.0730794-3.808594-6.4428711 0-2.7083333 1.153158-4.9405924 3.459473-6.6967773s5.448405-2.6342774 9.426269-2.6342774c3.935547 0 7.056478 1.0367839 9.362793 3.1103516 2.306316 2.0735677 3.459473 4.9934896 3.459473 8.7597656H642.275c0-5.6282552-1.459961-10.6323242-4.379883-15.012207-2.919922-4.3798828-7.01416-7.7547201-12.282715-10.1245118-5.268554-2.3697916-11.224772-3.5546874-17.868652-3.5546874-6.813151 0-12.949219 1.0896809-18.408203 3.2690429-5.458985 2.179362-9.680176 5.226237-12.663574 9.140625-2.983399 3.914388-4.475098 8.4318034-4.475098 13.5522461 0 10.2832031 5.987956 18.3658854 17.963867 24.2480469 3.681641 1.8196614 8.421224 3.7027995 14.21875 5.6494141 5.797526 1.9466145 9.849447 3.8297526 12.155762 5.649414 2.306315 1.8196615 3.459473 4.358724 3.459473 7.6171875 0 2.8776042-1.068523 5.1098637-3.205567 6.6967777-2.137044 1.586914-5.046387 2.380371-8.728027 2.380371-5.755209 0-9.912923-1.174317-12.473145-3.522949-2.560221-2.3486333-3.840332-5.9985356-3.840332-10.9497075h-22.34375c0 6.09375 1.534017 11.4786785 4.602051 16.1547855 3.068034 4.676106 7.638346 8.357747 13.710938 11.044922 6.072591 2.687174 12.854003 4.030761 20.344238 4.030761ZM674.781055 131v-21.5820312l-2.158203-44.2431641L695.030078 131h14.726563l22.34375-65.7617188-2.158204 44.1796876V131h22.34375V38.578125h-29.326171l-20.566407 64.3017578-20.629882-64.3017578h-29.262696V131h22.280274Zm114.20039 0V38.578125h-22.216797V131h22.216797ZM825.55 131V73.4902344L858.303906 131h22.153321V38.578125H858.24043v57.5097656L825.55 38.578125h-22.280273V131H825.55Zm103.980664 1.269531c7.447917 0 13.901367-1.311849 19.360352-3.935547 5.458984-2.623698 9.648437-6.442871 12.568359-11.457519 2.919922-5.014649 4.379883-10.9497072 4.379883-17.8051759V38.578125h-22.280274v60.3662109c0 5.7128907-1.184895 9.8388672-3.554687 12.3779301-2.369792 2.539062-5.861003 3.808593-10.473633 3.808593-9.140625 0-13.837891-5.056966-14.091797-15.1708981V38.578125h-22.407226v60.9375c.126953 10.15625 3.427734 18.154297 9.902343 23.994141 6.47461 5.839843 15.34017 8.759765 26.59668 8.759765Zm84.747266 0c10.621744 0 18.979492-2.306315 25.073242-6.918945 6.09375-4.61263 9.140625-10.960287 9.140625-19.0429688 0-10.1139323-4.99349-18.0485026-14.980469-23.803711-4.104818-2.3697916-9.352213-4.5808919-15.742187-6.6333007-6.389974-2.0524089-10.854493-4.0413412-13.393555-5.9667969-2.539063-1.9254557-3.808594-4.0730794-3.808594-6.4428711 0-2.7083333 1.153158-4.9405924 3.459473-6.6967773s5.448405-2.6342774 9.426269-2.6342774c3.935547 0 7.056478 1.0367839 9.362793 3.1103516C1025.121842 59.3138021 1026.275 62.233724 1026.275 66h22.216797c0-5.6282552-1.459961-10.6323242-4.379883-15.012207-2.919922-4.3798828-7.01416-7.7547201-12.282715-10.1245118-5.268554-2.3697916-11.224772-3.5546874-17.868652-3.5546874-6.813151 0-12.949219 1.0896809-18.408203 3.2690429-5.458985 2.179362-9.680176 5.226237-12.663574 9.140625-2.983399 3.914388-4.475098 8.4318034-4.475098 13.5522461 0 10.2832031 5.987956 18.3658854 17.963867 24.2480469 3.681641 1.8196614 8.421224 3.7027995 14.21875 5.6494141 5.797526 1.9466145 9.849447 3.8297526 12.155762 5.649414 2.306315 1.8196615 3.459472 4.358724 3.459472 7.6171875 0 2.8776042-1.068522 5.1098637-3.205566 6.6967777-2.137044 1.586914-5.046387 2.380371-8.728027 2.380371-5.755209 0-9.912923-1.174317-12.473145-3.522949-2.560221-2.3486333-3.840332-5.9985356-3.840332-10.9497075h-22.34375c0 6.09375 1.534017 11.4786785 4.602051 16.1547855 3.068034 4.676106 7.638346 8.357747 13.710937 11.044922 6.072592 2.687174 12.854004 4.030761 20.344239 4.030761ZM372.5449219 249.269531c7.3632812 0 13.9119466-1.354166 19.6459961-4.0625 5.7340494-2.708333 10.1879882-6.527506 13.3618164-11.457519 3.1738281-4.930013 4.9088541-10.611166 5.2050781-17.043457h-22.1533203c-.1692708 5.247396-1.6080729 9.077148-4.3164063 11.489257-2.7083333 2.41211-6.6227213 3.618165-11.743164 3.618165-6.0514323 0-10.3149414-2.115886-12.7905274-6.347657-2.4755859-4.231771-3.7133789-11.277669-3.7133789-21.137695v-6.538086c.1269532-9.098307 1.4811198-15.721029 4.0625-19.868164 2.5813802-4.147135 6.6438802-6.220703 12.1875-6.220703 5.4589844 0 9.5214844 1.227213 12.1875 3.68164 2.6660156 2.454428 4.0836589 6.495769 4.2529297 12.124024h22.2167969c-.9309896-10.367839-4.8030599-18.503418-11.616211-24.406738-6.813151-5.903321-15.8268229-8.854981-27.0410156-8.854981-7.7864583 0-14.6419271 1.8514-20.5664062 5.554199-5.9244792 3.7028-10.4630534 8.950196-13.61572268 15.742188-3.15266927 6.791992-4.72900391 14.715983-4.72900391 23.771973v4.570312c0 14.430339 3.49121094 25.602214 10.47363279 33.515625 6.9824219 7.913412 16.546224 11.870117 28.6914063 11.870117ZM481.159375 248v-17.138672h-38.78418v-75.283203h-22.2802731V248h61.0644531Zm42.852734 1.269531c7.447917 0 13.901368-1.311849 19.360352-3.935547 5.458984-2.623698 9.648437-6.442871 12.568359-11.457519 2.919922-5.014649 4.379883-10.949707 4.379883-17.805176v-60.493164H538.04043v60.366211c0 5.712891-1.184896 9.838867-3.554688 12.37793-2.369791 2.539062-5.861002 3.808593-10.473633 3.808593-9.140625 0-13.83789-5.056966-14.091797-15.170898v-61.381836h-22.407226v60.9375c.126953 10.15625 3.427734 18.154297 9.902344 23.994141 6.474609 5.839843 15.340169 8.759765 26.596679 8.759765ZM610.536719 248c11.25651-.084635 19.75179-2.40153 25.48584-6.950684 5.734049-4.549153 8.601074-11.351725 8.601074-20.407714 0-4.99349-1.29069-9.225261-3.872071-12.695313-2.58138-3.470052-6.284179-5.839844-11.108398-7.109375 4.274089-1.608073 7.511393-4.104818 9.711914-7.490234 2.200521-3.385417 3.300781-7.469076 3.300781-12.250977 0-8.294271-3.099772-14.620768-9.299316-18.979492-6.199544-4.358724-15.244954-6.538086-27.136231-6.538086H573.02207V248h37.514649Zm-3.618164-53.891602h-11.616211v-21.328125h10.917968c4.99349 0 8.611654.856934 10.854493 2.570801 2.242838 1.713867 3.364257 4.517416 3.364257 8.410645 0 3.385416-1.036783 5.945638-3.110351 7.680664-2.073568 1.735026-5.54362 2.623698-10.410156 2.666015Zm2.983398 36.75293h-14.599609v-22.15332h15.615234c7.659505.042318 11.489258 3.914388 11.489258 11.616211 0 3.343099-1.079102 5.935058-3.237305 7.775879-2.158203 1.84082-5.247396 2.76123-9.267578 2.76123Z"/></g></g></svg>
